<?xml version="1.0" encoding="UTF-8" standalone="no"?>
<!-- Created with Inkscape (http://www.inkscape.org/) -->

<svg
   version="1.1"
   id="svg1"
   width="1000"
   height="200"
   viewBox="0 0 1000 200"
   xmlns:xlink="http://www.w3.org/1999/xlink"
   xmlns="http://www.w3.org/2000/svg"
   xmlns:svg="http://www.w3.org/2000/svg">
  <defs
     id="defs1">
    <linearGradient
       id="linearGradient4">
      <stop
         style="stop-color:#d000d0;stop-opacity:1;"
         offset="0"
         id="stop4" />
      <stop
         style="stop-color:#00c6a0;stop-opacity:1;"
         offset="1"
         id="stop5" />
    </linearGradient>
    <linearGradient
       xlink:href="#linearGradient4"
       id="linearGradient5"
       x1="0"
       y1="521.95807"
       x2="1039"
       y2="521.95807"
       gradientUnits="userSpaceOnUse"
       gradientTransform="translate(-13,-264)" />
  </defs>
  <g
     id="g1">
    <path
       style="fill:url(#linearGradient5)"
       d="M -13,476.5 V 474 h 261.96482 c 257.97348,0 261.98058,0.0295 263,1.93426 0.56935,1.06384 1.03518,2.18884 1.03518,2.5 C 513,478.74542 394.65,479 250,479 H -13 Z m 537.18195,0 -1.13907,-2.5 h 12.81804 c 12.70217,0 12.82835,0.0226 13.95713,2.5 l 1.13907,2.5 h -12.81804 c -12.70217,0 -12.82835,-0.0226 -13.95713,-2.5 z m 55.0586,0.51357 C 578.55825,475.92103 578,474.79603 578,474.51357 578,474.23111 672.275,474 787.5,474 c 137.10017,0 209.5,0.34095 209.5,0.98658 0,0.54262 -1.63,1.66762 -3.6221,2.5 C 990.184,478.82108 965.56253,479 785.11842,479 582.03004,479 580.4717,478.98496 579.24055,477.01357 Z M 1022.7552,476.5 c -0.3713,-1.94242 -0.063,-2.5 1.3835,-2.5 1.3187,0 1.8613,0.72875 1.8613,2.5 0,1.46193 -0.5744,2.5 -1.3834,2.5 -0.7609,0 -1.5985,-1.125 -1.8614,-2.5 z M 474.5,153.22787 c -1.1,-0.2437 -2.60132,-0.93198 -3.33626,-1.52952 -1.46268,-1.1892 -20.18446,-29.39999 -41.13049,-61.97721 -7.34806,-11.42837 -13.84364,-20.61768 -14.43464,-20.42068 -1.08313,0.36105 -9.48974,13.11256 -36.29196,55.04921 -8.03193,12.56732 -15.70172,24.15482 -17.04397,25.75 C 359.82551,152.99608 359.80638,153 348.11111,153 335.47856,153 334,152.47062 334,147.94769 c 0,-1.79156 11.0465,-19.65696 34.03839,-55.05 C 386.75951,64.07896 402.82052,39.9375 403.72952,39.25 404.81414,38.42968 409.08437,38 416.15217,38 c 9.40739,0 10.99625,0.24715 12.55887,1.95355 1.53724,1.67866 25.99268,39.21051 59.32512,91.04645 5.12822,7.975 9.49428,15.4 9.70235,16.5 0.77065,4.07413 -1.62276,5.24047 -11.73851,5.72032 -5.225,0.24785 -10.4,0.25125 -11.5,0.008 z m -287.79275,-2.24351 c -5.81918,-4.57737 -5.70018,-14.71702 0.22221,-18.93413 4.47056,-3.18332 11.19771,-2.80191 15.30476,0.86774 2.95987,2.64464 3.26578,3.44853 3.26578,8.58203 0,5.1335 -0.30591,5.93739 -3.26578,8.58203 -4.12187,3.68289 -11.45062,4.10879 -15.52697,0.90233 z m 389.56368,-0.0562 C 569.20997,147.3945 564.21895,140.54509 562.66057,132.25 L 562.05,129 h 54.32578 c 37.08501,0 55.33191,-0.35074 57.49611,-1.10518 C 677.75472,126.54125 679,124.3813 679,119 c 0,-5.11289 -1.37656,-7.81247 -4.6107,-9.04209 -1.36901,-0.52049 -18.32915,-1.84184 -37.6892,-2.93631 -43.09301,-2.43617 -44.56881,-2.58019 -52.89645,-5.16191 -15.90112,-4.92964 -22.8996,-18.02511 -20.68909,-38.71318 0.87373,-8.17717 3.41088,-13.64464 8.34002,-17.97249 9.27182,-8.14076 10.80023,-8.32743 67.52963,-8.2477 l 48.4842,0.0682 5.16594,2.52746 c 2.84127,1.3901 6.3937,4.13713 7.89428,6.10449 2.52065,3.30475 5.47137,10.8725 5.47137,14.03251 0,1.10434 -9.39994,1.34528 -53.25,1.36493 -50.55182,0.0226 -59.61479,0.44093 -62.03707,2.86321 -0.5734,0.5734 -1.24237,3.45216 -1.4866,6.39724 -0.41724,5.0314 -0.25172,5.51654 2.74153,8.03519 1.75208,1.47428 3.71356,2.68789 4.35887,2.69692 0.6453,0.009 19.17327,1.09734 41.17327,2.41847 34.55195,2.07489 40.9235,2.70608 46.78037,4.63425 7.72513,2.54321 14.71976,8.05064 17.7377,13.96628 3.16289,6.19978 4.47267,16.76784 3.10474,25.05095 -1.97035,11.93092 -6.449,18.2979 -16.03227,22.79196 L 683.5,152.5 632,152.77227 c -50.72086,0.26816 -51.56398,0.24026 -55.72907,-1.84414 z M 830.2,151.8 c -0.8968,-0.8968 -1.2,-12.26667 -1.2,-45 V 63 l -7.25,-0.0399 c -3.9875,-0.022 -15.61413,-0.005 -25.83696,0.0372 -18.14586,0.0753 -23.41632,-0.61895 -25.12738,-3.3099 -1.46985,-2.31161 -0.88397,-17.10207 0.77104,-19.46493 L 773.11341,38 H 841.5567 C 921.6221,38 914,36.74908 914,49.88922 c 0,12.72656 1.75202,12.02885 -31,12.34518 l -27.5,0.2656 -0.5,44 c -0.275,24.2 -0.86406,44.5625 -1.30902,45.25 -1.10252,1.70349 -21.79344,1.74754 -23.49098,0.05 z M 178.49961,125.61409 c -4.2839,-1.86702 -5.91014,-4.25504 -5.88452,-8.64105 0.0262,-4.48435 1.64504,-6.76457 6.13491,-8.64136 2.76127,-1.15423 3.76422,-1.14366 6.66951,0.0702 C 189.36584,110.0508 191,112.56862 191,117 c 0,4.42233 -1.63277,6.94861 -5.54837,8.58466 -3.97059,1.65902 -3.22018,1.65584 -6.95202,0.0294 z m 24.7629,0.17413 C 199.86078,124.90674 197,120.89219 197,117 c 0,-8.64344 10.45142,-12.53116 16.25,-6.04469 3.46499,3.87605 3.55439,7.93528 0.26096,11.84929 -2.84224,3.37781 -5.61359,4.18463 -10.24845,2.98362 z m -38.80796,-23.24277 c -2.9997,-2.99969 -3.13134,-6.41533 -0.38197,-9.91059 C 168.31546,87.24091 177,90.67176 177,97.74187 c 0,2.17192 -0.79652,3.73951 -2.63486,5.18555 -3.49526,2.74937 -6.9109,2.61773 -9.91059,-0.38197 z m 25.18031,0.38197 C 186.33332,100.33043 186.02234,94.97766 189,92 c 4.75136,-4.75136 13.86433,-0.18626 12.60873,6.31629 -1.20234,6.2267 -7.05479,8.48048 -11.97387,4.61113 z m 23.81969,-0.38197 c -2.9997,-2.99969 -3.13134,-6.41533 -0.38197,-9.91059 C 215.66957,89.33332 221.02234,89.02234 224,92 c 2.97766,2.97766 2.66668,8.33043 -0.63486,10.92742 -3.49526,2.74937 -6.9109,2.61773 -9.91059,-0.38197 z m -60.06211,-17.0621 c -2.53943,-2.53943 -2.58685,-5.18446 -0.14761,-8.23335 1.21418,-1.51763 5.1829,-1.62664 7.82091,-0.21482 2.81389,1.50595 2.63451,7.36094 -0.28825,9.40812 -3.06172,2.14451 -4.4627,1.9624 -7.38505,-0.95995 z m 24.69422,0.60331 c -2.57433,-2.57433 -2.68628,-6.23404 -0.25792,-8.43167 C 181.57725,74.26263 188,76.77751 188,81.63761 c 0,5.08743 -6.40185,7.96054 -9.91334,4.44905 z m 24.30578,-0.60331 c -2.53943,-2.53943 -2.58685,-5.18446 -0.14761,-8.23335 1.27402,-1.59243 6.9794,-1.62577 8.55517,-0.05 2.05834,2.05834 1.45554,7.50761 -1.02251,9.2433 -3.06172,2.14451 -4.4627,1.9624 -7.38505,-0.95995 z m 24.69422,0.60331 c -2.57433,-2.57433 -2.68628,-6.23404 -0.25792,-8.43167 C 230.57725,74.26263 237,76.77751 237,81.63761 c 0,5.08743 -6.40185,7.96054 -9.91334,4.44905 z M 141.50037,71.6409 c -2.95324,-4.5072 1.57817,-9.12991 6.06669,-6.18892 2.78938,1.82767 3.14342,4.69469 0.86151,6.97659 -2.26242,2.26242 -5.14439,1.93477 -6.9282,-0.78767 z m 25.24963,1.279 c -4.5217,-2.63365 0.55801,-10.43098 5.18294,-7.95579 1.32425,0.70872 2.06706,2.09982 2.06706,3.87107 0,4.59155 -3.24291,6.41864 -7.25,4.08472 z m 23.75037,-1.279 c -2.95324,-4.5072 1.57817,-9.12991 6.06669,-6.18892 2.78938,1.82767 3.14342,4.69469 0.86151,6.97659 -2.26242,2.26242 -5.14439,1.93477 -6.9282,-0.78767 z m 25.07106,0.78767 c -2.28191,-2.2819 -1.92787,-5.14892 0.86151,-6.97659 3.30093,-2.16285 6.56706,-0.48021 6.56706,3.3832 0,4.82707 -4.17523,6.84673 -7.42857,3.59339 z m 23.92894,-0.78767 c -2.95324,-4.5072 1.57817,-9.12991 6.06669,-6.18892 2.78938,1.82767 3.14342,4.69469 0.86151,6.97659 -2.26242,2.26242 -5.14439,1.93477 -6.9282,-0.78767 z M 130.2,61.8 c -1.80186,-1.80186 -1.4457,-4.59814 0.73426,-5.76482 C 131.9981,55.46583 133.09096,55 133.36283,55 134.19274,55 137,58.0873 137,59 c 0,1.28431 -2.96786,4 -4.37143,4 C 131.95286,63 130.86,62.46 130.2,61.8 Z m 25.05,0.53772 c -1.70318,-0.68725 -1.58087,-4.81824 0.18608,-6.28467 1.87294,-1.55441 5.56392,0.2912 5.56392,2.78213 0,3.18228 -2.60746,4.77058 -5.75,3.50254 z m 23.78983,-0.78973 c -1.42941,-1.72233 -0.56719,-5.13165 1.49824,-5.92422 3.47563,-1.33373 6.23429,2.06454 4.42316,5.44867 -1.21991,2.27942 -4.22409,2.52068 -5.9214,0.47555 z m 25.00004,5e-5 c -2.64768,-3.19026 1.25886,-8.20486 4.37631,-5.61761 1.88116,1.56123 2.0537,4.19969 0.38382,5.86957 -1.60329,1.60329 -3.29471,1.51376 -4.76013,-0.25196 z m 23.99996,-5e-5 c -1.42941,-1.72233 -0.56719,-5.13165 1.49824,-5.92422 3.47563,-1.33373 6.23429,2.06454 4.42316,5.44867 -1.21991,2.27942 -4.22409,2.52068 -5.9214,0.47555 z m 25.00004,5e-5 c -2.64768,-3.19026 1.25886,-8.20486 4.37631,-5.61761 1.88116,1.56123 2.0537,4.19969 0.38382,5.86957 -1.60329,1.60329 -3.29471,1.51376 -4.76013,-0.25196 z M 118.36163,52.5 c -0.7922,-2.06442 0.28192,-4.5 1.98454,-4.5 0.77492,0 1.96914,0.675 2.65383,1.5 0.99319,1.19672 0.99319,1.80328 0,3 -0.68469,0.825 -1.87891,1.5 -2.65383,1.5 -0.77492,0 -1.66796,-0.675 -1.98454,-1.5 z m 24.2289,-0.12467 c -0.8482,-2.21039 1.71996,-4.8539 3.90207,-4.01655 1.0151,0.38954 1.52477,1.49782 1.32754,2.88675 -0.39875,2.80809 -4.26506,3.64336 -5.22961,1.1298 z M 167.36163,52.5 c -0.7922,-2.06442 0.28192,-4.5 1.98454,-4.5 0.77492,0 1.96914,0.675 2.65383,1.5 0.99319,1.19672 0.99319,1.80328 0,3 -0.68469,0.825 -1.87891,1.5 -2.65383,1.5 -0.77492,0 -1.66796,-0.675 -1.98454,-1.5 z m 24.2289,-0.12467 c -0.8482,-2.21039 1.71996,-4.8539 3.90207,-4.01655 1.0151,0.38954 1.52477,1.49782 1.32754,2.88675 -0.39875,2.80809 -4.26506,3.64336 -5.22961,1.1298 z M 216.36163,52.5 c -0.7922,-2.06442 0.28192,-4.5 1.98454,-4.5 0.77492,0 1.96914,0.675 2.65383,1.5 0.99319,1.19672 0.99319,1.80328 0,3 -0.68469,0.825 -1.87891,1.5 -2.65383,1.5 -0.77492,0 -1.66796,-0.675 -1.98454,-1.5 z m 24.63231,-0.007 c -1.10651,-1.33326 -1.06338,-1.85183 0.26442,-3.17963 2.1445,-2.1445 4.97193,-0.95307 4.56178,1.92224 -0.39071,2.73897 -3.02665,3.42572 -4.8262,1.25739 z m 24.36769,0.007 c -0.7922,-2.06442 0.28192,-4.5 1.98454,-4.5 0.77492,0 1.96914,0.675 2.65383,1.5 0.99319,1.19672 0.99319,1.80328 0,3 -0.68469,0.825 -1.87891,1.5 -2.65383,1.5 -0.77492,0 -1.66796,-0.675 -1.98454,-1.5 z m -159.0258,-7.06722 c -0.33077,-0.86197 -0.0884,-2.08018 0.53853,-2.70714 1.40744,-1.40744 4.74172,1.4685 3.68495,3.1784 -0.9981,1.61495 -3.53139,1.33229 -4.22348,-0.47126 z m 24.83296,-0.59382 C 131.35096,43.55253 132.175,42.5 133,42.5 c 2.16873,0 1.86998,3.90136 -0.33121,4.32527 -1.42006,0.27348 -1.75684,-0.17249 -1.5,-1.98631 z m 24.16704,0.59382 c -0.33077,-0.86197 -0.0884,-2.08018 0.53853,-2.70714 1.40744,-1.40744 4.74172,1.4685 3.68495,3.1784 -0.9981,1.61495 -3.53139,1.33229 -4.22348,-0.47126 z m 25,0 c -0.83346,-2.17196 1.28244,-4.21451 2.79695,-2.7 C 184.41282,44.01282 183.61983,47 182,47 c -0.58452,0 -1.3334,-0.70525 -1.66417,-1.56722 z m 23.98707,-0.0337 c -0.85252,-2.22164 1.81066,-3.69307 3.54542,-1.95888 0.75258,0.75233 1.06353,1.86106 0.69099,2.46384 -1.00603,1.62779 -3.53361,1.32652 -4.23641,-0.50496 z m 25.01293,0.0337 c -0.83346,-2.17196 1.28244,-4.21451 2.79695,-2.7 C 233.41282,44.01282 232.61983,47 231,47 c -0.58452,0 -1.3334,-0.70525 -1.66417,-1.56722 z m 23.98707,-0.0337 c -0.85252,-2.22164 1.81066,-3.69307 3.54542,-1.95888 0.75258,0.75233 1.06353,1.86106 0.69099,2.46384 -1.00603,1.62779 -3.53361,1.32652 -4.23641,-0.50496 z m 25.01293,0.0337 c -0.83346,-2.17196 1.28244,-4.21451 2.79695,-2.7 C 282.41282,44.01282 281.61983,47 280,47 c -0.58452,0 -1.3334,-0.70525 -1.66417,-1.56722 z M 94,39.57332 C 94,38.64569 94.855,38 96.08333,38 c 2.43705,0 2.09257,2.33677 -0.4162,2.82332 C 94.68037,41.0147 94,40.50456 94,39.57332 Z M 119,39.5 c 0,-0.825 0.675,-1.5 1.5,-1.5 0.825,0 1.5,0.675 1.5,1.5 0,0.825 -0.675,1.5 -1.5,1.5 -0.825,0 -1.5,-0.675 -1.5,-1.5 z m 24.69385,0.86052 C 142.76061,39.42728 143.88837,38 145.55902,38 146.35156,38 147,38.675 147,39.5 c 0,1.50623 -2.11099,2.05568 -3.30615,0.86052 z M 168,39.5 c 0,-0.825 0.675,-1.5 1.5,-1.5 0.825,0 1.5,0.675 1.5,1.5 0,0.825 -0.675,1.5 -1.5,1.5 -0.825,0 -1.5,-0.675 -1.5,-1.5 z m 24.69385,0.86052 C 191.76061,39.42728 192.88837,38 194.55902,38 195.35156,38 196,38.675 196,39.5 c 0,1.50623 -2.11099,2.05568 -3.30615,0.86052 z M 217,39.5 c 0,-0.825 0.675,-1.5 1.5,-1.5 0.825,0 1.5,0.675 1.5,1.5 0,0.825 -0.675,1.5 -1.5,1.5 -0.825,0 -1.5,-0.675 -1.5,-1.5 z m 25,0 c 0,-0.825 0.675,-1.5 1.5,-1.5 0.825,0 1.5,0.675 1.5,1.5 0,0.825 -0.675,1.5 -1.5,1.5 -0.825,0 -1.5,-0.675 -1.5,-1.5 z m 24,0 c 0,-0.825 0.675,-1.5 1.5,-1.5 0.825,0 1.5,0.675 1.5,1.5 0,0.825 -0.675,1.5 -1.5,1.5 -0.825,0 -1.5,-0.675 -1.5,-1.5 z m 25,0 c 0,-0.825 0.675,-1.5 1.5,-1.5 0.825,0 1.5,0.675 1.5,1.5 0,0.825 -0.675,1.5 -1.5,1.5 -0.825,0 -1.5,-0.675 -1.5,-1.5 z"
       id="path3" />
  </g>
</svg>
